<svg xmlns="http://www.w3.org/2000/svg" width="256" height="256" viewBox="0 0 100 100"><rect width="100" height="100" rx="50" fill="#000000"></rect><path fill="#fff" d="M28.56 59.10L28.56 59.10Q24.12 62.50 19.56 62.50L19.56 62.50Q14.76 62.50 12.56 58.94L12.56 58.94Q11 56.34 11 53.16Q11 49.98 12.16 46.82L12.16 46.82Q9.36 44.94 9.08 41.78L9.08 41.78Q9 41.18 9 40.58L9 40.58Q9 35.78 13.12 32.54L13.12 32.54Q17.52 29.10 23.52 29.10Q29.52 29.10 33.46 32.44Q37.40 35.78 37.40 41.98L37.40 41.98Q37.40 42.38 37.40 42.78L37.40 42.78Q41.40 40.14 42.60 37.74L42.60 37.74Q42.80 37.30 43.12 37.36Q43.44 37.42 43.44 37.62Q43.44 37.82 43.20 38.18L43.20 38.18Q40.84 41.90 37.24 44.18L37.24 44.18Q37.08 46.06 36.22 48.70Q35.36 51.34 33.32 54.16Q31.28 56.98 28.56 59.10ZM35.04 41.94L35.04 41.94Q35.04 35.18 30.72 31.94L30.72 31.94Q27.84 29.78 24 29.78L24 29.78Q22.88 29.78 21.72 29.98L21.72 29.98Q16.84 30.70 13.76 34.02L13.76 34.02Q11.16 36.90 11.16 40.54L11.16 40.54Q11.16 43.70 12.88 45.18L12.88 45.18Q14.44 41.86 17.48 38.46L17.48 38.46Q20.80 34.74 24.48 33.90L24.48 33.90Q25.08 33.78 26.02 33.78Q26.96 33.78 28.20 34.54L28.20 34.54Q28.48 34.70 28.50 34.86Q28.52 35.02 28.32 35.10Q28.12 35.18 27.72 35.04Q27.32 34.90 26.38 34.90Q25.44 34.90 23.68 35.86Q21.92 36.82 20.12 38.86L20.12 38.86Q16.56 42.90 14.92 46.54L14.92 46.54Q17.44 47.70 20.96 47.70L20.96 47.70Q22.52 47.70 24.28 47.50L24.28 47.50Q30 46.74 34.96 44.06L34.96 44.06Q35.04 42.98 35.04 41.94ZM34.72 45.46L34.72 45.46Q28.04 49.02 20.64 49.02L20.64 49.02Q17.04 49.02 14.32 47.94L14.32 47.94Q13.08 51.18 13.08 53.54L13.08 53.54Q13.08 59.06 16.40 60.70L16.40 60.70Q18.20 61.54 19.98 61.54Q21.76 61.54 23.44 60.78L23.44 60.78Q26.96 59.18 29.76 55.78Q32.56 52.38 34 48.30L34 48.30Q34.56 46.70 34.72 45.46ZM57.28 46.94L57.28 46.94Q52.40 55.62 52.40 58.14L52.40 58.14Q52.40 59.26 53.16 59.26L53.16 59.26Q54.12 59.26 55.36 57.82L55.36 57.82Q57.24 55.54 58.64 52.34L58.64 52.34Q58.88 51.78 59.12 51.90Q59.36 52.02 59.36 52.22Q59.36 52.42 58.96 53.22Q58.56 54.02 58.32 54.50Q58.08 54.98 57.26 56.34Q56.44 57.70 55.86 58.34Q55.28 58.98 54.38 59.60Q53.48 60.22 52.34 60.22Q51.20 60.22 50.40 59.10L50.40 59.10Q50.04 58.58 50.04 57.68Q50.04 56.78 50.44 55.50Q50.84 54.22 52.64 51.34L52.64 51.34Q53.08 50.62 53.08 50.20Q53.08 49.78 52.42 49.78Q51.76 49.78 50.04 51.38Q48.32 52.98 46.42 55.70Q44.52 58.42 44.16 60.06L44.16 60.06Q43.48 60.06 43.16 59.50Q42.84 58.94 42.84 58.54L42.84 58.54Q42.84 56.90 45.04 52.30L45.04 52.30Q45.76 50.78 45.80 50.24Q45.84 49.70 45.66 49.68Q45.48 49.66 45.16 49.82L45.16 49.82Q44.44 50.18 42.96 51.58L42.96 51.58Q40.16 54.14 37.44 59.38L37.44 59.38Q37.24 59.82 36.94 59.92Q36.64 60.02 35.76 60.06Q34.88 60.10 34.60 60.26L34.60 60.26Q35.32 58.86 37.12 55.02L37.12 55.02Q40.36 48.14 41.44 47.10L41.44 47.10Q41.92 46.62 42.76 46.62L42.76 46.62Q42.92 46.62 43.58 46.74Q44.24 46.86 44.56 46.78L44.56 46.78Q43.08 47.58 39.72 54.30L39.72 54.30Q41.60 51.98 42.42 51.26Q43.24 50.54 43.64 50.18Q44.04 49.82 44.26 49.62Q44.48 49.42 44.90 49.04Q45.32 48.66 45.54 48.48Q45.76 48.30 46.16 47.98Q46.56 47.66 46.78 47.56Q47 47.46 47.38 47.22Q47.76 46.98 47.94 46.98Q48.12 46.98 48.44 46.88Q48.76 46.78 48.88 46.94L48.88 46.94Q49.68 47.26 49.68 47.94L49.68 47.94Q49.68 48.54 48.32 51.02Q46.96 53.50 46.56 54.30L46.56 54.30Q48.32 52.10 49.92 50.68Q51.52 49.26 53.70 48.06Q55.88 46.86 56.88 46.86L56.88 46.86Q57.12 46.86 57.28 46.94ZM70.72 46.94L70.72 46.94Q65.80 55.58 65.80 58.22L65.80 58.22Q65.80 59.26 66.56 59.26L66.56 59.26Q68.60 59.26 72.04 52.34L72.04 52.34Q72.28 51.78 72.52 51.90Q72.76 52.02 72.76 52.22Q72.76 52.42 72.60 52.70L72.60 52.70Q70.48 56.98 69.02 58.60Q67.56 60.22 66.10 60.22Q64.64 60.22 63.88 59.10L63.88 59.10Q63.48 58.58 63.48 57.68Q63.48 56.78 63.88 55.50Q64.28 54.22 66.08 51.34L66.08 51.34Q66.52 50.62 66.52 50.20Q66.52 49.78 65.84 49.78Q65.16 49.78 63.24 51.58L63.24 51.58Q60.36 54.22 57.68 59.50L57.68 59.50Q57.44 59.90 57.14 60Q56.84 60.10 55.96 60.14Q55.08 60.18 54.80 60.34L54.80 60.34Q55.44 59.06 57.32 55.10L57.32 55.10Q60.68 48.10 61.72 47.10L61.72 47.10Q62.20 46.62 63.04 46.62L63.04 46.62Q63.20 46.62 63.86 46.74Q64.52 46.86 64.84 46.78L64.84 46.78Q63.36 47.58 60 54.30L60 54.30Q61.88 51.98 63.42 50.60Q64.96 49.22 67.12 48.04Q69.28 46.86 70.28 46.86L70.28 46.86Q70.52 46.86 70.72 46.94ZM77.52 44.50Q76.96 44.98 76.28 44.98Q75.60 44.98 75.20 44.50Q74.80 44.02 74.88 43.34L74.88 43.34Q75 42.66 75.56 42.18Q76.12 41.70 76.80 41.70Q77.48 41.70 77.90 42.18Q78.32 42.66 78.20 43.34Q78.08 44.02 77.52 44.50ZM73.60 59.18L73.60 59.18Q74.36 59.18 75.20 58.42L75.20 58.42Q76.68 56.94 78.96 52.38L78.96 52.38Q79.24 51.78 79.52 52.02L79.52 52.02Q79.60 52.10 79.60 52.28Q79.60 52.46 79.28 53.16Q78.96 53.86 78.70 54.42Q78.44 54.98 77.70 56.24Q76.96 57.50 76.36 58.18L76.36 58.18Q74.72 60.06 73.26 60.06Q71.80 60.06 71.16 59.18Q70.52 58.30 70.52 57.22Q70.52 56.14 71.04 54.86L71.04 54.86L73.60 48.34Q73.68 48.10 73.68 47.70Q73.68 47.30 73.20 46.66L73.20 46.66L75.40 46.62Q76.32 46.62 76.48 46.96Q76.64 47.30 76.24 48.02L76.24 48.02L73.04 55.50Q72.36 56.98 72.36 58.02L72.36 58.02Q72.36 59.18 73.60 59.18ZM91 49.18L91 49.18Q91 50.94 90.08 53.06Q89.16 55.18 87.54 57.14Q85.92 59.10 83.60 59.82L83.60 59.82Q82.72 60.06 81.58 60.06Q80.44 60.06 79.08 59.34L79.08 59.34L75.28 68.82Q74.68 70.10 74.16 70.50Q73.64 70.90 73.16 70.90Q72.68 70.90 72.58 70.90Q72.48 70.90 71.86 70.78Q71.24 70.66 70.92 70.70L70.92 70.70Q71.80 69.86 75.38 62.72Q78.96 55.58 79.44 53.10L79.44 53.10Q79 53.74 78.60 53.78L78.60 53.78Q78.36 53.78 78.60 53.32Q78.84 52.86 79.40 51.54L79.40 51.54Q80.12 49.82 80.12 48.36Q80.12 46.90 79.56 46.66L79.56 46.66Q81.96 46.26 82.36 46.28Q82.76 46.30 82.86 46.62Q82.96 46.94 82.96 47.34L82.96 47.34Q82.96 49.78 81.84 52.78L81.84 52.78L82.64 51.50Q84.08 49.18 84.74 48.50Q85.40 47.82 86.16 47.10L86.16 47.10Q87.32 45.98 88.40 45.98L88.40 45.98Q88.72 45.98 89 46.06L89 46.06Q91 46.58 91 49.18ZM89.08 48.78L89.08 48.78Q89.08 48.14 88.82 47.60Q88.56 47.06 88 47.06L88 47.06Q86.60 47.06 84.74 49.66Q82.88 52.26 79.40 58.74L79.40 58.74Q79.92 59.26 80.84 59.26Q81.76 59.26 83.44 57.86L83.44 57.86Q86.12 55.62 87.92 52.30L87.92 52.30Q89.08 50.14 89.08 48.78Z"></path></svg>