<svg xmlns="http://www.w3.org/2000/svg" width="256" height="256" viewBox="0 0 100 100"><rect width="100" height="100" rx="50" fill="#000000"></rect><path fill="#fff" d="M18.28 57L13.96 57L13.96 39Q13.96 36.84 15.48 35.32Q17.00 33.80 19.16 33.80L19.16 33.80L32.12 33.80L32.12 38.12L19.76 38.12Q18.88 38.12 18.58 38.42Q18.28 38.72 18.28 39.60L18.28 39.60L18.28 57ZM53.16 57L39.96 57Q37.80 57 36.28 55.48Q34.76 53.96 34.76 51.80L34.76 51.80L34.76 51.20L39.08 51.20L39.08 51.44Q39.08 52.08 39.38 52.38Q39.68 52.68 40.32 52.68L40.32 52.68L52.80 52.68Q53.44 52.68 53.72 52.38Q54 52.08 54 51.44L54 51.44L54 48.80Q54 48.16 53.72 47.86Q53.44 47.56 52.80 47.56L52.80 47.56L39.96 47.56Q37.80 47.56 36.28 46.04Q34.76 44.52 34.76 42.36L34.76 42.36L34.76 39Q34.76 36.84 36.28 35.32Q37.80 33.80 39.96 33.80L39.96 33.80L53.16 33.80Q55.32 33.80 56.84 35.32Q58.36 36.84 58.36 39L58.36 39L58.36 39.60L54 39.60L54 39.36Q54 38.72 53.72 38.42Q53.44 38.12 52.80 38.12L52.80 38.12L40.32 38.12Q39.68 38.12 39.38 38.42Q39.08 38.72 39.08 39.36L39.08 39.36L39.08 42Q39.08 42.64 39.38 42.94Q39.68 43.24 40.32 43.24L40.32 43.24L53.16 43.24Q55.32 43.24 56.84 44.76Q58.36 46.28 58.36 48.44L58.36 48.44L58.36 51.80Q58.36 53.96 56.84 55.48Q55.32 57 53.16 57L53.16 57ZM66.76 66.20L62.44 66.20L62.44 33.80L80.84 33.80Q83 33.80 84.52 35.32Q86.04 36.84 86.04 39L86.04 39L86.04 51.80Q86.04 53.96 84.52 55.48Q83 57 80.84 57L80.84 57L66.76 57L66.76 66.20ZM68.24 52.68L68.24 52.68L80.24 52.68Q81.12 52.68 81.42 52.38Q81.72 52.08 81.72 51.20L81.72 51.20L81.72 39.60Q81.72 38.72 81.42 38.42Q81.12 38.12 80.24 38.12L80.24 38.12L68.24 38.12Q67.36 38.12 67.06 38.42Q66.76 38.72 66.76 39.60L66.76 39.60L66.76 51.20Q66.76 52.08 67.06 52.38Q67.36 52.68 68.24 52.68Z"></path></svg>